<svg width="44" height="44" viewBox="0 0 44 44" fill="none" xmlns="http://www.w3.org/2000/svg">
<path d="M8.47465 2.75C5.45504 2.75 3 5.21641 3 8.25V35.75C3 38.7836 5.45504 41.25 8.47465 41.25H35.8479C38.8675 41.25 41.3226 38.7836 41.3226 35.75V8.25C41.3226 5.21641 38.8675 2.75 35.8479 2.75H8.47465ZM33.889 9.96875L25.0098 20.1609L35.4544 34.0312H27.2767L20.8782 25.618L13.5473 34.0312H9.48404L18.9791 23.1258L8.96224 9.96875H17.3453L23.1365 17.6602L29.8258 9.96875H33.889ZM30.6556 31.5906L16.1221 12.2805H13.7012L28.3973 31.5906H30.647H30.6556Z" fill="black"/>
</svg>
