<svg width="161" height="161" viewBox="0 0 161 161" fill="none" xmlns="http://www.w3.org/2000/svg">
<g filter="url(#filter0_d_2160_338660)">
<path fill-rule="evenodd" clip-rule="evenodd" d="M56.6902 5.95239L28.2817 34.3608C26.5953 35.9888 25.6126 38.0061 25.6126 40.3842V141.774H134.081V3.28333H62.7132C60.3351 3.28333 58.3187 4.26625 56.6902 5.95239Z" fill="#E3F1FF"/>
<path fill-rule="evenodd" clip-rule="evenodd" d="M56.4528 6.1897L28.519 34.1234C30.2299 32.4708 32.5555 31.4516 35.1122 31.4516H53.781V12.7828C53.781 10.2262 54.8002 7.90021 56.4528 6.1897Z" fill="#61A0E0"/>
<path fill-rule="evenodd" clip-rule="evenodd" d="M56.4528 6.1897L34.2188 28.4234C35.4644 27.8213 36.8596 27.4837 38.3312 27.4837H53.781V12.7828C53.781 10.2259 54.8002 7.90021 56.4528 6.1897Z" fill="#7CB5EF"/>
<path d="M129.752 3.28333H134.081V141.775H129.752V3.28333Z" fill="#B6DBFF"/>
<path fill-rule="evenodd" clip-rule="evenodd" d="M114.677 73.7579C115.855 73.7579 116.81 74.7128 116.81 75.8907C116.81 77.0686 115.855 78.0235 114.677 78.0235H45.0164C43.8384 78.0235 42.8835 77.0686 42.8835 75.8907C42.8835 74.7128 43.8384 73.7579 45.0164 73.7579H114.677H114.677ZM114.677 24.8516C115.855 24.8516 116.81 25.8065 116.81 26.9844C116.81 28.1623 115.855 29.1172 114.677 29.1172H94.2462C93.0683 29.1172 92.1134 28.1623 92.1134 26.9844C92.1134 25.8065 93.0683 24.8516 94.2462 24.8516H114.677ZM114.677 41.1536C115.855 41.1536 116.81 42.1084 116.81 43.2864C116.81 44.4643 115.855 45.4192 114.677 45.4192H45.0164C43.8384 45.4192 42.8835 44.4643 42.8835 43.2864C42.8835 42.1084 43.8384 41.1536 45.0164 41.1536H114.677H114.677ZM114.677 57.4556C115.855 57.4556 116.81 58.4105 116.81 59.5884C116.81 60.7663 115.855 61.7212 114.677 61.7212H45.0164C43.8384 61.7212 42.8835 60.7663 42.8835 59.5884C42.8835 58.4105 43.8384 57.4556 45.0164 57.4556H114.677H114.677ZM114.677 106.362C115.855 106.362 116.81 107.316 116.81 108.494C116.81 109.672 115.855 110.627 114.677 110.627H67.4188C66.2409 110.627 65.286 109.672 65.286 108.494C65.286 107.316 66.2409 106.362 67.4188 106.362H114.677H114.677ZM114.677 90.0596C115.855 90.0596 116.81 91.0145 116.81 92.1924C116.81 93.3703 115.855 94.3252 114.677 94.3252H45.0164C43.8384 94.3252 42.8835 93.3703 42.8835 92.1924C42.8835 91.0145 43.8384 90.0596 45.0164 90.0596H114.677H114.677Z" fill="#909CD1"/>
<path d="M144.8 144.83C155.253 134.378 155.253 117.431 144.8 106.978C134.348 96.5259 117.401 96.5259 106.948 106.978C96.4959 117.431 96.4959 134.378 106.948 144.83C117.401 155.282 134.348 155.282 144.8 144.83Z" fill="#E8333C"/>
<path fill-rule="evenodd" clip-rule="evenodd" d="M124.644 152.643C110.444 151.987 99.1319 140.267 99.1319 125.905C99.1319 111.542 110.444 99.8221 124.644 99.1658C138.845 99.8224 150.157 111.542 150.157 125.905C150.157 140.267 138.845 151.987 124.644 152.643Z" fill="#FF4D4D"/>
<path fill-rule="evenodd" clip-rule="evenodd" d="M125.901 107.388C129.52 107.388 132.896 108.427 135.748 110.222L110.219 135.751C108.424 132.899 107.385 129.523 107.385 125.904C107.385 115.678 115.675 107.387 125.901 107.387V107.388ZM141.584 116.057L116.055 141.586C118.907 143.381 122.283 144.42 125.901 144.42C136.128 144.42 144.418 136.13 144.418 125.904C144.418 122.285 143.379 118.91 141.584 116.057L141.584 116.057Z" fill="#F3F3FF"/>
</g>
<defs>
<filter id="filter0_d_2160_338660" x="25.6126" y="3.28333" width="135.027" height="157.386" filterUnits="userSpaceOnUse" color-interpolation-filters="sRGB">
<feFlood flood-opacity="0" result="BackgroundImageFix"/>
<feColorMatrix in="SourceAlpha" type="matrix" values="0 0 0 0 0 0 0 0 0 0 0 0 0 0 0 0 0 0 127 0" result="hardAlpha"/>
<feOffset dx="8" dy="8"/>
<feComposite in2="hardAlpha" operator="out"/>
<feColorMatrix type="matrix" values="0 0 0 0 0 0 0 0 0 0 0 0 0 0 0 0 0 0 0.5 0"/>
<feBlend mode="normal" in2="BackgroundImageFix" result="effect1_dropShadow_2160_338660"/>
<feBlend mode="normal" in="SourceGraphic" in2="effect1_dropShadow_2160_338660" result="shape"/>
</filter>
</defs>
</svg>
