<svg width="162" height="162" viewBox="0 0 162 162" fill="none" xmlns="http://www.w3.org/2000/svg">
<g filter="url(#filter0_d_2160_338642)">
<path d="M78 2.13281C62.9949 2.13281 48.3267 6.58235 35.8504 14.9187C23.3741 23.2551 13.65 35.104 7.90783 48.9669C2.16562 62.8298 0.6632 78.0842 3.59055 92.8009C6.5179 107.518 13.7436 121.036 24.3538 131.646C34.964 142.256 48.4822 149.482 63.199 152.409C77.9158 155.337 93.1702 153.834 107.033 148.092C120.896 142.35 132.745 132.626 141.081 120.15C149.418 107.673 153.867 93.0051 153.867 78C153.867 57.8788 145.874 38.5817 131.646 24.3538C117.418 10.1259 98.1212 2.13281 78 2.13281ZM24.6309 112.698C16.6674 100.467 13.1494 85.8701 14.6665 71.354C16.1836 56.8379 22.6435 43.2842 32.9638 32.9638C43.2842 22.6435 56.8379 16.1836 71.354 14.6665C85.8701 13.1495 100.467 16.6674 112.698 24.6309C113.1 28.4822 113.283 30.2006 113.673 34.0519L85.2759 62.4609L78.6581 69.0666L34.0518 113.673C30.2006 113.271 28.4822 113.1 24.6309 112.698ZM81.9731 141.558C68.5051 142.405 55.1174 138.939 43.7531 131.662C43.3387 127.798 43.1559 126.08 42.7415 122.216L107.396 57.5616L122.216 42.7416L131.662 43.7531C137.63 53.0906 141.056 63.8244 141.603 74.8927C142.149 85.9609 139.796 96.98 134.777 106.86C129.757 116.74 122.246 125.138 112.984 131.224C103.723 137.309 93.0336 140.871 81.9731 141.558Z" fill="#F56A34"/>
<path d="M66.5193 98.4384H70.2243V94.7334L66.5193 98.4384ZM85.2759 62.4609L81.8512 59.0363H67.0434L61.3762 64.7034V86.3484L70.2243 77.5003V68.3719L70.7118 67.8966H78.1828L78.6581 68.3719V69.0666L85.2759 62.4609ZM77.4637 87.4941H78.6581V98.4384H87.5184V77.4394L77.4637 87.4941Z" fill="#EB5757"/>
<path d="M28.1836 67.8929H36.8367V98.4348H45.6885V67.8929H54.3404V59.0399H28.1836V67.8929Z" fill="#EB5757"/>
<path d="M126.604 68.1768L119.876 74.7093L126.604 81.254V98.4384H117.743V84.9956L113.527 80.8884L109.31 84.9956V98.4384H100.449V81.254L107.177 74.7093L100.449 68.1768V64.5084L107.396 57.5615H109.31V64.4353L113.527 68.5425L117.743 64.4353V57.5615H126.604V68.1768Z" fill="#EB5757"/>
</g>
<defs>
<filter id="filter0_d_2160_338642" x="2.13275" y="2.13281" width="159.734" height="159.734" filterUnits="userSpaceOnUse" color-interpolation-filters="sRGB">
<feFlood flood-opacity="0" result="BackgroundImageFix"/>
<feColorMatrix in="SourceAlpha" type="matrix" values="0 0 0 0 0 0 0 0 0 0 0 0 0 0 0 0 0 0 127 0" result="hardAlpha"/>
<feOffset dx="8" dy="8"/>
<feComposite in2="hardAlpha" operator="out"/>
<feColorMatrix type="matrix" values="0 0 0 0 0.384787 0 0 0 0 0.848948 0 0 0 0 0.654 0 0 0 1 0"/>
<feBlend mode="normal" in2="BackgroundImageFix" result="effect1_dropShadow_2160_338642"/>
<feBlend mode="normal" in="SourceGraphic" in2="effect1_dropShadow_2160_338642" result="shape"/>
</filter>
</defs>
</svg>
