<svg width="178" height="156" viewBox="0 0 178 156" fill="none" xmlns="http://www.w3.org/2000/svg">
<g filter="url(#filter0_d_2160_338683)">
<path d="M17.3192 59.1818V97H9.32351V66.7713H9.10192L0.441406 72.2003V65.1094L9.80362 59.1818H17.3192ZM41.1357 97.831C37.9595 97.8187 35.2266 97.0369 32.9368 95.4858C30.6593 93.9347 28.9051 91.688 27.674 88.7457C26.4553 85.8035 25.852 82.2642 25.8643 78.1278C25.8643 74.0038 26.4737 70.4891 27.6925 67.5838C28.9235 64.6785 30.6778 62.4687 32.9553 60.9545C35.245 59.428 37.9718 58.6648 41.1357 58.6648C44.2995 58.6648 47.0201 59.428 49.2976 60.9545C51.5874 62.4811 53.3478 64.697 54.5788 67.6023C55.8099 70.4953 56.4193 74.0038 56.407 78.1278C56.407 82.2765 55.7914 85.822 54.5604 88.7642C53.3416 91.7064 51.5935 93.9531 49.3161 95.5043C47.0386 97.0554 44.3118 97.831 41.1357 97.831ZM41.1357 91.2017C43.3023 91.2017 45.032 90.1122 46.3246 87.9332C47.6172 85.7543 48.2573 82.4858 48.245 78.1278C48.245 75.2595 47.9496 72.8712 47.3587 70.9631C46.7801 69.0549 45.9553 67.6207 44.8842 66.6605C43.8255 65.7003 42.576 65.2202 41.1357 65.2202C38.9813 65.2202 37.2578 66.2973 35.9652 68.4517C34.6726 70.6061 34.0201 73.8314 34.0078 78.1278C34.0078 81.0331 34.2971 83.4583 34.8757 85.4034C35.4666 87.3362 36.2976 88.7888 37.3686 89.7614C38.4396 90.7216 39.6953 91.2017 41.1357 91.2017ZM74.3651 97V59.1818H89.5071C92.2893 59.1818 94.6098 59.5942 96.4688 60.419C98.3277 61.2438 99.7249 62.3887 100.661 63.8537C101.596 65.3063 102.064 66.9806 102.064 68.8764C102.064 70.3537 101.768 71.6525 101.178 72.7727C100.587 73.8807 99.7741 74.7917 98.7401 75.5057C97.7183 76.2074 96.5488 76.706 95.2315 77.0014V77.3707C96.6719 77.4323 98.0199 77.8385 99.2756 78.5895C100.544 79.3404 101.571 80.393 102.359 81.7472C103.147 83.089 103.541 84.6894 103.541 86.5483C103.541 88.5549 103.043 90.3461 102.045 91.9219C101.061 93.4853 99.6018 94.7225 97.669 95.6335C95.7363 96.5445 93.3542 97 90.5227 97H74.3651ZM82.3608 90.4631H88.8793C91.1075 90.4631 92.7325 90.0384 93.7543 89.1889C94.776 88.3272 95.2869 87.1823 95.2869 85.7543C95.2869 84.7079 95.0346 83.7846 94.5298 82.9844C94.0251 82.1842 93.3049 81.5563 92.3693 81.1009C91.446 80.6454 90.3442 80.4176 89.0639 80.4176H82.3608V90.4631ZM82.3608 75.0071H88.2884C89.384 75.0071 90.3565 74.8163 91.206 74.4347C92.0677 74.0407 92.7448 73.4867 93.2372 72.7727C93.742 72.0587 93.9943 71.2031 93.9943 70.206C93.9943 68.8395 93.508 67.7377 92.5355 66.9006C91.5753 66.0634 90.2088 65.6449 88.4361 65.6449H82.3608V75.0071ZM108.744 97V59.1818H116.74V90.4077H132.953V97H108.744ZM169.88 59.1818V97H162.974L146.521 73.1974H146.244V97H138.248V59.1818H145.265L161.589 82.9659H161.921V59.1818H169.88Z" fill="black"/>
</g>
<path d="M35.5072 150.217C34.4972 150.213 33.6343 149.947 32.9184 149.418C32.2025 148.89 31.6549 148.121 31.2757 147.111C30.8964 146.101 30.7068 144.884 30.7068 143.461C30.7068 142.042 30.8964 140.83 31.2757 139.824C31.6592 138.818 32.2089 138.051 32.9248 137.523C33.645 136.994 34.5058 136.73 35.5072 136.73C36.5086 136.73 37.3673 136.996 38.0832 137.529C38.7991 138.058 39.3467 138.825 39.7259 139.83C40.1095 140.832 40.3012 142.042 40.3012 143.461C40.3012 144.888 40.1116 146.107 39.7323 147.117C39.3531 148.123 38.8055 148.892 38.0896 149.425C37.3737 149.953 36.5129 150.217 35.5072 150.217ZM35.5072 148.511C36.3936 148.511 37.086 148.078 37.5846 147.213C38.0874 146.348 38.3389 145.097 38.3389 143.461C38.3389 142.374 38.2238 141.456 37.9937 140.706C37.7678 139.952 37.4419 139.381 37.0157 138.993C36.5938 138.601 36.091 138.405 35.5072 138.405C34.6251 138.405 33.9326 138.839 33.4298 139.709C32.9269 140.578 32.6734 141.829 32.6691 143.461C32.6691 144.552 32.782 145.474 33.0079 146.229C33.238 146.979 33.564 147.548 33.9859 147.935C34.4078 148.319 34.9149 148.511 35.5072 148.511Z" fill="#6B549D"/>
<path d="M48.5072 132.217C47.4972 132.213 46.6343 131.947 45.9184 131.418C45.2025 130.89 44.6549 130.121 44.2757 129.111C43.8964 128.101 43.7068 126.884 43.7068 125.461C43.7068 124.042 43.8964 122.83 44.2757 121.824C44.6592 120.818 45.2089 120.051 45.9248 119.523C46.645 118.994 47.5058 118.73 48.5072 118.73C49.5086 118.73 50.3673 118.996 51.0832 119.529C51.7991 120.058 52.3467 120.825 52.7259 121.83C53.1095 122.832 53.3012 124.042 53.3012 125.461C53.3012 126.888 53.1116 128.107 52.7323 129.117C52.3531 130.123 51.8055 130.892 51.0896 131.425C50.3737 131.953 49.5129 132.217 48.5072 132.217ZM48.5072 130.511C49.3936 130.511 50.086 130.078 50.5846 129.213C51.0874 128.348 51.3389 127.097 51.3389 125.461C51.3389 124.374 51.2238 123.456 50.9937 122.706C50.7678 121.952 50.4419 121.381 50.0157 120.993C49.5938 120.601 49.091 120.405 48.5072 120.405C47.6251 120.405 46.9326 120.839 46.4298 121.709C45.9269 122.578 45.6734 123.829 45.6691 125.461C45.6691 126.552 45.782 127.474 46.0079 128.229C46.238 128.979 46.564 129.548 46.9859 129.935C47.4078 130.319 47.9149 130.511 48.5072 130.511Z" fill="#6B549D"/>
<path d="M60.5072 150.217C59.4972 150.213 58.6343 149.947 57.9184 149.418C57.2025 148.89 56.6549 148.121 56.2757 147.111C55.8964 146.101 55.7068 144.884 55.7068 143.461C55.7068 142.042 55.8964 140.83 56.2757 139.824C56.6592 138.818 57.2089 138.051 57.9248 137.523C58.645 136.994 59.5058 136.73 60.5072 136.73C61.5086 136.73 62.3673 136.996 63.0832 137.529C63.7991 138.058 64.3467 138.825 64.7259 139.83C65.1095 140.832 65.3012 142.042 65.3012 143.461C65.3012 144.888 65.1116 146.107 64.7323 147.117C64.3531 148.123 63.8055 148.892 63.0896 149.425C62.3737 149.953 61.5129 150.217 60.5072 150.217ZM60.5072 148.511C61.3936 148.511 62.086 148.078 62.5846 147.213C63.0874 146.348 63.3389 145.097 63.3389 143.461C63.3389 142.374 63.2238 141.456 62.9937 140.706C62.7678 139.952 62.4419 139.381 62.0157 138.993C61.5938 138.601 61.091 138.405 60.5072 138.405C59.6251 138.405 58.9326 138.839 58.4298 139.709C57.9269 140.578 57.6734 141.829 57.6691 143.461C57.6691 144.552 57.782 145.474 58.0079 146.229C58.238 146.979 58.564 147.548 58.9859 147.935C59.4078 148.319 59.9149 148.511 60.5072 148.511Z" fill="#6B549D"/>
<path d="M73.5072 132.217C72.4972 132.213 71.6343 131.947 70.9184 131.418C70.2025 130.89 69.6549 130.121 69.2757 129.111C68.8964 128.101 68.7068 126.884 68.7068 125.461C68.7068 124.042 68.8964 122.83 69.2757 121.824C69.6592 120.818 70.2089 120.051 70.9248 119.523C71.645 118.994 72.5058 118.73 73.5072 118.73C74.5086 118.73 75.3673 118.996 76.0832 119.529C76.7991 120.058 77.3467 120.825 77.7259 121.83C78.1095 122.832 78.3012 124.042 78.3012 125.461C78.3012 126.888 78.1116 128.107 77.7323 129.117C77.3531 130.123 76.8055 130.892 76.0896 131.425C75.3737 131.953 74.5129 132.217 73.5072 132.217ZM73.5072 130.511C74.3936 130.511 75.086 130.078 75.5846 129.213C76.0874 128.348 76.3389 127.097 76.3389 125.461C76.3389 124.374 76.2238 123.456 75.9937 122.706C75.7678 121.952 75.4419 121.381 75.0157 120.993C74.5938 120.601 74.091 120.405 73.5072 120.405C72.6251 120.405 71.9326 120.839 71.4298 121.709C70.9269 122.578 70.6734 123.829 70.6691 125.461C70.6691 126.552 70.782 127.474 71.0079 128.229C71.238 128.979 71.564 129.548 71.9859 129.935C72.4078 130.319 72.9149 130.511 73.5072 130.511Z" fill="#6B549D"/>
<path d="M85.5072 150.217C84.4972 150.213 83.6343 149.947 82.9184 149.418C82.2025 148.89 81.6549 148.121 81.2757 147.111C80.8964 146.101 80.7068 144.884 80.7068 143.461C80.7068 142.042 80.8964 140.83 81.2757 139.824C81.6592 138.818 82.2089 138.051 82.9248 137.523C83.645 136.994 84.5058 136.73 85.5072 136.73C86.5086 136.73 87.3673 136.996 88.0832 137.529C88.7991 138.058 89.3467 138.825 89.7259 139.83C90.1095 140.832 90.3012 142.042 90.3012 143.461C90.3012 144.888 90.1116 146.107 89.7323 147.117C89.3531 148.123 88.8055 148.892 88.0896 149.425C87.3737 149.953 86.5129 150.217 85.5072 150.217ZM85.5072 148.511C86.3936 148.511 87.086 148.078 87.5846 147.213C88.0874 146.348 88.3389 145.097 88.3389 143.461C88.3389 142.374 88.2238 141.456 87.9937 140.706C87.7678 139.952 87.4419 139.381 87.0157 138.993C86.5938 138.601 86.091 138.405 85.5072 138.405C84.6251 138.405 83.9326 138.839 83.4298 139.709C82.9269 140.578 82.6734 141.829 82.6691 143.461C82.6691 144.552 82.782 145.474 83.0079 146.229C83.238 146.979 83.564 147.548 83.9859 147.935C84.4078 148.319 84.9149 148.511 85.5072 148.511Z" fill="#6B549D"/>
<path d="M98.5072 132.217C97.4972 132.213 96.6343 131.947 95.9184 131.418C95.2025 130.89 94.6549 130.121 94.2757 129.111C93.8964 128.101 93.7068 126.884 93.7068 125.461C93.7068 124.042 93.8964 122.83 94.2757 121.824C94.6592 120.818 95.2089 120.051 95.9248 119.523C96.645 118.994 97.5058 118.73 98.5072 118.73C99.5086 118.73 100.367 118.996 101.083 119.529C101.799 120.058 102.347 120.825 102.726 121.83C103.109 122.832 103.301 124.042 103.301 125.461C103.301 126.888 103.112 128.107 102.732 129.117C102.353 130.123 101.805 130.892 101.09 131.425C100.374 131.953 99.5129 132.217 98.5072 132.217ZM98.5072 130.511C99.3936 130.511 100.086 130.078 100.585 129.213C101.087 128.348 101.339 127.097 101.339 125.461C101.339 124.374 101.224 123.456 100.994 122.706C100.768 121.952 100.442 121.381 100.016 120.993C99.5938 120.601 99.091 120.405 98.5072 120.405C97.6251 120.405 96.9326 120.839 96.4298 121.709C95.9269 122.578 95.6734 123.829 95.6691 125.461C95.6691 126.552 95.782 127.474 96.0079 128.229C96.238 128.979 96.564 129.548 96.9859 129.935C97.4078 130.319 97.9149 130.511 98.5072 130.511Z" fill="#6B549D"/>
<path d="M110.507 150.217C109.497 150.213 108.634 149.947 107.918 149.418C107.203 148.89 106.655 148.121 106.276 147.111C105.896 146.101 105.707 144.884 105.707 143.461C105.707 142.042 105.896 140.83 106.276 139.824C106.659 138.818 107.209 138.051 107.925 137.523C108.645 136.994 109.506 136.73 110.507 136.73C111.509 136.73 112.367 136.996 113.083 137.529C113.799 138.058 114.347 138.825 114.726 139.83C115.109 140.832 115.301 142.042 115.301 143.461C115.301 144.888 115.112 146.107 114.732 147.117C114.353 148.123 113.805 148.892 113.09 149.425C112.374 149.953 111.513 150.217 110.507 150.217ZM110.507 148.511C111.394 148.511 112.086 148.078 112.585 147.213C113.087 146.348 113.339 145.097 113.339 143.461C113.339 142.374 113.224 141.456 112.994 140.706C112.768 139.952 112.442 139.381 112.016 138.993C111.594 138.601 111.091 138.405 110.507 138.405C109.625 138.405 108.933 138.839 108.43 139.709C107.927 140.578 107.673 141.829 107.669 143.461C107.669 144.552 107.782 145.474 108.008 146.229C108.238 146.979 108.564 147.548 108.986 147.935C109.408 148.319 109.915 148.511 110.507 148.511Z" fill="#6B549D"/>
<path d="M123.507 132.217C122.497 132.213 121.634 131.947 120.918 131.418C120.203 130.89 119.655 130.121 119.276 129.111C118.896 128.101 118.707 126.884 118.707 125.461C118.707 124.042 118.896 122.83 119.276 121.824C119.659 120.818 120.209 120.051 120.925 119.523C121.645 118.994 122.506 118.73 123.507 118.73C124.509 118.73 125.367 118.996 126.083 119.529C126.799 120.058 127.347 120.825 127.726 121.83C128.109 122.832 128.301 124.042 128.301 125.461C128.301 126.888 128.112 128.107 127.732 129.117C127.353 130.123 126.805 130.892 126.09 131.425C125.374 131.953 124.513 132.217 123.507 132.217ZM123.507 130.511C124.394 130.511 125.086 130.078 125.585 129.213C126.087 128.348 126.339 127.097 126.339 125.461C126.339 124.374 126.224 123.456 125.994 122.706C125.768 121.952 125.442 121.381 125.016 120.993C124.594 120.601 124.091 120.405 123.507 120.405C122.625 120.405 121.933 120.839 121.43 121.709C120.927 122.578 120.673 123.829 120.669 125.461C120.669 126.552 120.782 127.474 121.008 128.229C121.238 128.979 121.564 129.548 121.986 129.935C122.408 130.319 122.915 130.511 123.507 130.511Z" fill="#6B549D"/>
<path d="M135.507 150.217C134.497 150.213 133.634 149.947 132.918 149.418C132.203 148.89 131.655 148.121 131.276 147.111C130.896 146.101 130.707 144.884 130.707 143.461C130.707 142.042 130.896 140.83 131.276 139.824C131.659 138.818 132.209 138.051 132.925 137.523C133.645 136.994 134.506 136.73 135.507 136.73C136.509 136.73 137.367 136.996 138.083 137.529C138.799 138.058 139.347 138.825 139.726 139.83C140.109 140.832 140.301 142.042 140.301 143.461C140.301 144.888 140.112 146.107 139.732 147.117C139.353 148.123 138.805 148.892 138.09 149.425C137.374 149.953 136.513 150.217 135.507 150.217ZM135.507 148.511C136.394 148.511 137.086 148.078 137.585 147.213C138.087 146.348 138.339 145.097 138.339 143.461C138.339 142.374 138.224 141.456 137.994 140.706C137.768 139.952 137.442 139.381 137.016 138.993C136.594 138.601 136.091 138.405 135.507 138.405C134.625 138.405 133.933 138.839 133.43 139.709C132.927 140.578 132.673 141.829 132.669 143.461C132.669 144.552 132.782 145.474 133.008 146.229C133.238 146.979 133.564 147.548 133.986 147.935C134.408 148.319 134.915 148.511 135.507 148.511Z" fill="#6B549D"/>
<path d="M35.5072 19.2173C34.4972 19.2131 33.6343 18.9467 32.9184 18.4183C32.2025 17.8899 31.6549 17.1207 31.2757 16.1108C30.8964 15.1009 30.7068 13.8842 30.7068 12.4609C30.7068 11.0419 30.8964 9.82955 31.2757 8.82386C31.6592 7.81818 32.2089 7.05114 32.9248 6.52273C33.645 5.99432 34.5058 5.73011 35.5072 5.73011C36.5086 5.73011 37.3673 5.99645 38.0832 6.52912C38.7991 7.05753 39.3467 7.82457 39.7259 8.83026C40.1095 9.83168 40.3012 11.0419 40.3012 12.4609C40.3012 13.8885 40.1116 15.1072 39.7323 16.1172C39.3531 17.1229 38.8055 17.892 38.0896 18.4247C37.3737 18.9531 36.5129 19.2173 35.5072 19.2173ZM35.5072 17.5107C36.3936 17.5107 37.086 17.0781 37.5846 16.2131C38.0874 15.348 38.3389 14.0973 38.3389 12.4609C38.3389 11.3743 38.2238 10.456 37.9937 9.70597C37.7678 8.9517 37.4419 8.38068 37.0157 7.9929C36.5938 7.60085 36.091 7.40483 35.5072 7.40483C34.6251 7.40483 33.9326 7.83949 33.4298 8.70881C32.9269 9.57812 32.6734 10.8288 32.6691 12.4609C32.6691 13.5518 32.782 14.4744 33.0079 15.2287C33.238 15.9787 33.564 16.5476 33.9859 16.9354C34.4078 17.3189 34.9149 17.5107 35.5072 17.5107Z" fill="#6B549D"/>
<path d="M48.5072 39.2173C47.4972 39.2131 46.6343 38.9467 45.9184 38.4183C45.2025 37.8899 44.6549 37.1207 44.2757 36.1108C43.8964 35.1009 43.7068 33.8842 43.7068 32.4609C43.7068 31.0419 43.8964 29.8295 44.2757 28.8239C44.6592 27.8182 45.2089 27.0511 45.9248 26.5227C46.645 25.9943 47.5058 25.7301 48.5072 25.7301C49.5086 25.7301 50.3673 25.9964 51.0832 26.5291C51.7991 27.0575 52.3467 27.8246 52.7259 28.8303C53.1095 29.8317 53.3012 31.0419 53.3012 32.4609C53.3012 33.8885 53.1116 35.1072 52.7323 36.1172C52.3531 37.1229 51.8055 37.892 51.0896 38.4247C50.3737 38.9531 49.5129 39.2173 48.5072 39.2173ZM48.5072 37.5107C49.3936 37.5107 50.086 37.0781 50.5846 36.2131C51.0874 35.348 51.3389 34.0973 51.3389 32.4609C51.3389 31.3743 51.2238 30.456 50.9937 29.706C50.7678 28.9517 50.4419 28.3807 50.0157 27.9929C49.5938 27.6009 49.091 27.4048 48.5072 27.4048C47.6251 27.4048 46.9326 27.8395 46.4298 28.7088C45.9269 29.5781 45.6734 30.8288 45.6691 32.4609C45.6691 33.5518 45.782 34.4744 46.0079 35.2287C46.238 35.9787 46.564 36.5476 46.9859 36.9354C47.4078 37.3189 47.9149 37.5107 48.5072 37.5107Z" fill="#6B549D"/>
<path d="M60.5072 19.2173C59.4972 19.2131 58.6343 18.9467 57.9184 18.4183C57.2025 17.8899 56.6549 17.1207 56.2757 16.1108C55.8964 15.1009 55.7068 13.8842 55.7068 12.4609C55.7068 11.0419 55.8964 9.82955 56.2757 8.82386C56.6592 7.81818 57.2089 7.05114 57.9248 6.52273C58.645 5.99432 59.5058 5.73011 60.5072 5.73011C61.5086 5.73011 62.3673 5.99645 63.0832 6.52912C63.7991 7.05753 64.3467 7.82457 64.7259 8.83026C65.1095 9.83168 65.3012 11.0419 65.3012 12.4609C65.3012 13.8885 65.1116 15.1072 64.7323 16.1172C64.3531 17.1229 63.8055 17.892 63.0896 18.4247C62.3737 18.9531 61.5129 19.2173 60.5072 19.2173ZM60.5072 17.5107C61.3936 17.5107 62.086 17.0781 62.5846 16.2131C63.0874 15.348 63.3389 14.0973 63.3389 12.4609C63.3389 11.3743 63.2238 10.456 62.9937 9.70597C62.7678 8.9517 62.4419 8.38068 62.0157 7.9929C61.5938 7.60085 61.091 7.40483 60.5072 7.40483C59.6251 7.40483 58.9326 7.83949 58.4298 8.70881C57.9269 9.57812 57.6734 10.8288 57.6691 12.4609C57.6691 13.5518 57.782 14.4744 58.0079 15.2287C58.238 15.9787 58.564 16.5476 58.9859 16.9354C59.4078 17.3189 59.9149 17.5107 60.5072 17.5107Z" fill="#6B549D"/>
<path d="M73.5072 39.2173C72.4972 39.2131 71.6343 38.9467 70.9184 38.4183C70.2025 37.8899 69.6549 37.1207 69.2757 36.1108C68.8964 35.1009 68.7068 33.8842 68.7068 32.4609C68.7068 31.0419 68.8964 29.8295 69.2757 28.8239C69.6592 27.8182 70.2089 27.0511 70.9248 26.5227C71.645 25.9943 72.5058 25.7301 73.5072 25.7301C74.5086 25.7301 75.3673 25.9964 76.0832 26.5291C76.7991 27.0575 77.3467 27.8246 77.7259 28.8303C78.1095 29.8317 78.3012 31.0419 78.3012 32.4609C78.3012 33.8885 78.1116 35.1072 77.7323 36.1172C77.3531 37.1229 76.8055 37.892 76.0896 38.4247C75.3737 38.9531 74.5129 39.2173 73.5072 39.2173ZM73.5072 37.5107C74.3936 37.5107 75.086 37.0781 75.5846 36.2131C76.0874 35.348 76.3389 34.0973 76.3389 32.4609C76.3389 31.3743 76.2238 30.456 75.9937 29.706C75.7678 28.9517 75.4419 28.3807 75.0157 27.9929C74.5938 27.6009 74.091 27.4048 73.5072 27.4048C72.6251 27.4048 71.9326 27.8395 71.4298 28.7088C70.9269 29.5781 70.6734 30.8288 70.6691 32.4609C70.6691 33.5518 70.782 34.4744 71.0079 35.2287C71.238 35.9787 71.564 36.5476 71.9859 36.9354C72.4078 37.3189 72.9149 37.5107 73.5072 37.5107Z" fill="#6B549D"/>
<path d="M85.5072 19.2173C84.4972 19.2131 83.6343 18.9467 82.9184 18.4183C82.2025 17.8899 81.6549 17.1207 81.2757 16.1108C80.8964 15.1009 80.7068 13.8842 80.7068 12.4609C80.7068 11.0419 80.8964 9.82955 81.2757 8.82386C81.6592 7.81818 82.2089 7.05114 82.9248 6.52273C83.645 5.99432 84.5058 5.73011 85.5072 5.73011C86.5086 5.73011 87.3673 5.99645 88.0832 6.52912C88.7991 7.05753 89.3467 7.82457 89.7259 8.83026C90.1095 9.83168 90.3012 11.0419 90.3012 12.4609C90.3012 13.8885 90.1116 15.1072 89.7323 16.1172C89.3531 17.1229 88.8055 17.892 88.0896 18.4247C87.3737 18.9531 86.5129 19.2173 85.5072 19.2173ZM85.5072 17.5107C86.3936 17.5107 87.086 17.0781 87.5846 16.2131C88.0874 15.348 88.3389 14.0973 88.3389 12.4609C88.3389 11.3743 88.2238 10.456 87.9937 9.70597C87.7678 8.9517 87.4419 8.38068 87.0157 7.9929C86.5938 7.60085 86.091 7.40483 85.5072 7.40483C84.6251 7.40483 83.9326 7.83949 83.4298 8.70881C82.9269 9.57812 82.6734 10.8288 82.6691 12.4609C82.6691 13.5518 82.782 14.4744 83.0079 15.2287C83.238 15.9787 83.564 16.5476 83.9859 16.9354C84.4078 17.3189 84.9149 17.5107 85.5072 17.5107Z" fill="#6B549D"/>
<path d="M98.5072 39.2173C97.4972 39.2131 96.6343 38.9467 95.9184 38.4183C95.2025 37.8899 94.6549 37.1207 94.2757 36.1108C93.8964 35.1009 93.7068 33.8842 93.7068 32.4609C93.7068 31.0419 93.8964 29.8295 94.2757 28.8239C94.6592 27.8182 95.2089 27.0511 95.9248 26.5227C96.645 25.9943 97.5058 25.7301 98.5072 25.7301C99.5086 25.7301 100.367 25.9964 101.083 26.5291C101.799 27.0575 102.347 27.8246 102.726 28.8303C103.109 29.8317 103.301 31.0419 103.301 32.4609C103.301 33.8885 103.112 35.1072 102.732 36.1172C102.353 37.1229 101.805 37.892 101.09 38.4247C100.374 38.9531 99.5129 39.2173 98.5072 39.2173ZM98.5072 37.5107C99.3936 37.5107 100.086 37.0781 100.585 36.2131C101.087 35.348 101.339 34.0973 101.339 32.4609C101.339 31.3743 101.224 30.456 100.994 29.706C100.768 28.9517 100.442 28.3807 100.016 27.9929C99.5938 27.6009 99.091 27.4048 98.5072 27.4048C97.6251 27.4048 96.9326 27.8395 96.4298 28.7088C95.9269 29.5781 95.6734 30.8288 95.6691 32.4609C95.6691 33.5518 95.782 34.4744 96.0079 35.2287C96.238 35.9787 96.564 36.5476 96.9859 36.9354C97.4078 37.3189 97.9149 37.5107 98.5072 37.5107Z" fill="#6B549D"/>
<path d="M110.507 19.2173C109.497 19.2131 108.634 18.9467 107.918 18.4183C107.203 17.8899 106.655 17.1207 106.276 16.1108C105.896 15.1009 105.707 13.8842 105.707 12.4609C105.707 11.0419 105.896 9.82955 106.276 8.82386C106.659 7.81818 107.209 7.05114 107.925 6.52273C108.645 5.99432 109.506 5.73011 110.507 5.73011C111.509 5.73011 112.367 5.99645 113.083 6.52912C113.799 7.05753 114.347 7.82457 114.726 8.83026C115.109 9.83168 115.301 11.0419 115.301 12.4609C115.301 13.8885 115.112 15.1072 114.732 16.1172C114.353 17.1229 113.805 17.892 113.09 18.4247C112.374 18.9531 111.513 19.2173 110.507 19.2173ZM110.507 17.5107C111.394 17.5107 112.086 17.0781 112.585 16.2131C113.087 15.348 113.339 14.0973 113.339 12.4609C113.339 11.3743 113.224 10.456 112.994 9.70597C112.768 8.9517 112.442 8.38068 112.016 7.9929C111.594 7.60085 111.091 7.40483 110.507 7.40483C109.625 7.40483 108.933 7.83949 108.43 8.70881C107.927 9.57812 107.673 10.8288 107.669 12.4609C107.669 13.5518 107.782 14.4744 108.008 15.2287C108.238 15.9787 108.564 16.5476 108.986 16.9354C109.408 17.3189 109.915 17.5107 110.507 17.5107Z" fill="#6B549D"/>
<path d="M123.507 39.2173C122.497 39.2131 121.634 38.9467 120.918 38.4183C120.203 37.8899 119.655 37.1207 119.276 36.1108C118.896 35.1009 118.707 33.8842 118.707 32.4609C118.707 31.0419 118.896 29.8295 119.276 28.8239C119.659 27.8182 120.209 27.0511 120.925 26.5227C121.645 25.9943 122.506 25.7301 123.507 25.7301C124.509 25.7301 125.367 25.9964 126.083 26.5291C126.799 27.0575 127.347 27.8246 127.726 28.8303C128.109 29.8317 128.301 31.0419 128.301 32.4609C128.301 33.8885 128.112 35.1072 127.732 36.1172C127.353 37.1229 126.805 37.892 126.09 38.4247C125.374 38.9531 124.513 39.2173 123.507 39.2173ZM123.507 37.5107C124.394 37.5107 125.086 37.0781 125.585 36.2131C126.087 35.348 126.339 34.0973 126.339 32.4609C126.339 31.3743 126.224 30.456 125.994 29.706C125.768 28.9517 125.442 28.3807 125.016 27.9929C124.594 27.6009 124.091 27.4048 123.507 27.4048C122.625 27.4048 121.933 27.8395 121.43 28.7088C120.927 29.5781 120.673 30.8288 120.669 32.4609C120.669 33.5518 120.782 34.4744 121.008 35.2287C121.238 35.9787 121.564 36.5476 121.986 36.9354C122.408 37.3189 122.915 37.5107 123.507 37.5107Z" fill="#6B549D"/>
<path d="M135.507 19.2173C134.497 19.2131 133.634 18.9467 132.918 18.4183C132.203 17.8899 131.655 17.1207 131.276 16.1108C130.896 15.1009 130.707 13.8842 130.707 12.4609C130.707 11.0419 130.896 9.82955 131.276 8.82386C131.659 7.81818 132.209 7.05114 132.925 6.52273C133.645 5.99432 134.506 5.73011 135.507 5.73011C136.509 5.73011 137.367 5.99645 138.083 6.52912C138.799 7.05753 139.347 7.82457 139.726 8.83026C140.109 9.83168 140.301 11.0419 140.301 12.4609C140.301 13.8885 140.112 15.1072 139.732 16.1172C139.353 17.1229 138.805 17.892 138.09 18.4247C137.374 18.9531 136.513 19.2173 135.507 19.2173ZM135.507 17.5107C136.394 17.5107 137.086 17.0781 137.585 16.2131C138.087 15.348 138.339 14.0973 138.339 12.4609C138.339 11.3743 138.224 10.456 137.994 9.70597C137.768 8.9517 137.442 8.38068 137.016 7.9929C136.594 7.60085 136.091 7.40483 135.507 7.40483C134.625 7.40483 133.933 7.83949 133.43 8.70881C132.927 9.57812 132.673 10.8288 132.669 12.4609C132.669 13.5518 132.782 14.4744 133.008 15.2287C133.238 15.9787 133.564 16.5476 133.986 16.9354C134.408 17.3189 134.915 17.5107 135.507 17.5107Z" fill="#6B549D"/>
<defs>
<filter id="filter0_d_2160_338683" x="0.441406" y="58.6648" width="177.439" height="47.1663" filterUnits="userSpaceOnUse" color-interpolation-filters="sRGB">
<feFlood flood-opacity="0" result="BackgroundImageFix"/>
<feColorMatrix in="SourceAlpha" type="matrix" values="0 0 0 0 0 0 0 0 0 0 0 0 0 0 0 0 0 0 127 0" result="hardAlpha"/>
<feOffset dx="8" dy="8"/>
<feComposite in2="hardAlpha" operator="out"/>
<feColorMatrix type="matrix" values="0 0 0 0 0.724237 0 0 0 0 0.67926 0 0 0 0 0.67926 0 0 0 1 0"/>
<feBlend mode="normal" in2="BackgroundImageFix" result="effect1_dropShadow_2160_338683"/>
<feBlend mode="normal" in="SourceGraphic" in2="effect1_dropShadow_2160_338683" result="shape"/>
</filter>
</defs>
</svg>
