<svg width="156" height="160" viewBox="0 0 156 160" fill="none" xmlns="http://www.w3.org/2000/svg">
<g filter="url(#filter0_d_2160_338651)">
<path d="M68.1353 151.182C51.6177 149.577 34.8706 141.547 26.6118 127.094C18.5824 112.641 20.6471 94.2883 26.3824 78.4589L31.2 92.2236C31.6588 93.6001 32.3471 95.2059 33.4941 95.8942C35.3294 97.0412 37.8529 96.1236 39.2294 94.2883C40.3765 92.453 40.6059 90.1589 40.3765 88.0942C39.6882 78.9177 34.4118 70.4295 34.1824 61.253C33.9529 50.7001 40.6059 41.0648 48.8647 34.4118C49.0941 38.0824 50.0118 41.9824 51.1588 45.4236C51.6177 46.8001 52.5353 48.1765 53.9118 48.4059C54.8294 48.4059 55.7471 47.9471 56.4353 47.2589C63.3177 41.5236 67.4471 33.2648 69.0529 24.5471C69.7412 20.1883 69.7412 15.6001 68.8235 11.2412C68.5941 10.3236 66.7588 5.73534 67.2177 5.04711C67.9059 3.67064 71.8059 6.65299 72.7235 7.11181C87.8647 16.7471 97.9588 33.953 98.1882 51.8471C98.1882 54.6001 98.6471 58.2706 101.4 58.7295C103.006 58.9589 104.612 58.0412 105.529 56.6648C106.447 55.2883 106.447 53.6824 106.676 52.0765C117.459 61.7118 125.259 73.6412 130.535 86.9471C133.518 94.7471 135.582 103.235 133.976 111.494C132.6 119.065 128.929 125.947 123.653 131.682C114.935 141.547 103.235 149.347 90.1588 150.724C83.2765 151.412 75.9353 151.641 68.1353 151.182Z" fill="#F95353"/>
<path d="M108.512 140.629C108.053 142.235 107.365 144.071 106.676 145.677C101.629 148.429 96.1235 150.265 90.3882 150.724C86.0294 151.182 81.6706 151.412 77.0824 151.412C74.3294 151.412 71.3471 151.412 68.3647 151.182C63.0882 150.724 57.8118 149.577 52.7647 147.741C50.0118 143.841 48.1765 139.253 47.4882 134.665C45.8824 124.571 48.8647 114.247 54.6 105.759C55.5176 104.382 57.5824 104.841 58.0412 106.447C59.6471 111.724 63.0882 116.541 66.9882 120.671C68.1353 121.818 69.9706 121.129 70.2 119.524C70.6588 114.018 71.8059 103.694 73.8706 98.1883C76.3941 91.306 80.2941 84.653 86.0294 79.8354C87.1765 78.9177 88.7824 79.3765 89.0118 80.9824C90.1588 87.8648 93.6 94.2883 97.0412 100.482C101.171 107.365 105.759 114.247 107.824 122.047C109.888 127.782 110.118 134.435 108.512 140.629Z" fill="white"/>
<path d="M108.512 140.629C108.053 142.235 107.365 144.071 106.676 145.677C101.629 148.429 96.1235 150.265 90.3882 150.724C86.0294 151.182 81.6706 151.412 77.0824 151.412C74.3294 151.412 71.3471 151.412 68.3647 151.182C63.0882 150.724 57.8118 149.577 52.7647 147.741C50.0118 143.841 48.1765 139.253 47.4882 134.665C45.8824 124.571 48.8647 114.247 54.6 105.759C55.5176 104.382 57.5824 104.841 58.0412 106.447C59.6471 111.724 63.0882 116.541 66.9882 120.671C68.1353 121.818 69.9706 121.129 70.2 119.524C70.6588 114.018 71.8059 103.694 73.8706 98.1883C76.3941 91.306 80.2941 84.653 86.0294 79.8354C87.1765 78.9177 88.7824 79.3765 89.0118 80.9824C90.1588 87.8648 93.6 94.2883 97.0412 100.482C101.171 107.365 105.759 114.247 107.824 122.047C109.888 127.782 110.118 134.435 108.512 140.629Z" fill="#FFD550"/>
<path d="M108.512 140.629C108.053 142.235 107.365 144.071 106.676 145.677C101.629 148.429 96.1235 150.265 90.3882 150.724C86.0294 151.182 81.6706 151.412 77.0824 151.412C74.3294 151.412 71.3471 151.412 68.3647 151.182C63.0882 150.724 57.8118 149.577 52.7647 147.741C50.0118 143.841 48.1765 139.253 47.4882 134.665C45.8824 124.571 48.8647 114.247 54.6 105.759C55.5176 104.382 57.5824 104.841 58.0412 106.447C59.6471 111.724 63.0882 116.541 66.9882 120.671C68.1353 121.818 69.9706 121.129 70.2 119.524C70.6588 114.018 71.8059 103.694 73.8706 98.1883C76.3941 91.306 80.2941 84.653 86.0294 79.8354C87.1765 78.9177 88.7824 79.3765 89.0118 80.9824C90.1588 87.8648 93.6 94.2883 97.0412 100.482C101.171 107.365 105.759 114.247 107.824 122.047C109.888 127.782 110.118 134.435 108.512 140.629Z" fill="#FFD550"/>
</g>
<defs>
<filter id="filter0_d_2160_338651" x="21.3126" y="4.68713" width="121.224" height="154.734" filterUnits="userSpaceOnUse" color-interpolation-filters="sRGB">
<feFlood flood-opacity="0" result="BackgroundImageFix"/>
<feColorMatrix in="SourceAlpha" type="matrix" values="0 0 0 0 0 0 0 0 0 0 0 0 0 0 0 0 0 0 127 0" result="hardAlpha"/>
<feOffset dx="8" dy="8"/>
<feComposite in2="hardAlpha" operator="out"/>
<feColorMatrix type="matrix" values="0 0 0 0 0 0 0 0 0 0 0 0 0 0 0 0 0 0 0.5 0"/>
<feBlend mode="normal" in2="BackgroundImageFix" result="effect1_dropShadow_2160_338651"/>
<feBlend mode="normal" in="SourceGraphic" in2="effect1_dropShadow_2160_338651" result="shape"/>
</filter>
</defs>
</svg>
