<svg width="120" height="120" viewBox="0 0 120 120" fill="none" xmlns="http://www.w3.org/2000/svg">
<path d="M35.625 64.25H16.875C15.8395 64.25 15 65.0895 15 66.125V96.125C15 97.1605 15.8395 98 16.875 98H35.625C36.6605 98 37.5 97.1605 37.5 96.125V66.125C37.5 65.0895 36.6605 64.25 35.625 64.25Z" fill="#D749A1"/>
<path d="M69.375 41.75H50.625C49.5895 41.75 48.75 42.5895 48.75 43.625V96.125C48.75 97.1605 49.5895 98 50.625 98H69.375C70.4105 98 71.25 97.1605 71.25 96.125V43.625C71.25 42.5895 70.4105 41.75 69.375 41.75Z" fill="#D749A1"/>
<path d="M103.125 23H84.375C83.3395 23 82.5 23.8395 82.5 24.875V96.125C82.5 97.1605 83.3395 98 84.375 98H103.125C104.161 98 105 97.1605 105 96.125V24.875C105 23.8395 104.161 23 103.125 23Z" fill="#D749A1"/>
<path d="M15 85.6812C22.5592 84.9039 30.0704 83.7146 37.5 82.1187V96.1249C37.4986 96.6217 37.3006 97.0978 36.9492 97.4491C36.5979 97.8005 36.1218 97.9985 35.625 97.9999H16.875C16.3782 97.9985 15.9021 97.8005 15.5508 97.4491C15.1994 97.0978 15.0014 96.6217 15 96.1249V85.6812Z" fill="#EA63B7"/>
<path d="M48.75 79.3626C56.4458 77.2255 63.9676 74.5051 71.25 71.2251V96.1251C71.2486 96.6219 71.0506 97.098 70.6992 97.4493C70.3479 97.8007 69.8718 97.9987 69.375 98.0001H50.625C50.1282 97.9987 49.6521 97.8007 49.3008 97.4493C48.9494 97.098 48.7514 96.6219 48.75 96.1251V79.3626Z" fill="#EA63B7"/>
<path d="M105 47.6375V96.125C104.999 96.6218 104.801 97.0979 104.449 97.4492C104.098 97.8005 103.622 97.9985 103.125 98H84.375C83.8782 97.9985 83.4021 97.8005 83.0508 97.4492C82.6994 97.0979 82.5014 96.6218 82.5 96.125V65.3937C90.8225 60.5991 98.4021 54.6175 105 47.6375Z" fill="#EA63B7"/>
<path d="M114.375 98H5.625C5.12772 98 4.65081 97.8025 4.29917 97.4508C3.94754 97.0992 3.75 96.6223 3.75 96.125C3.75 95.6277 3.94754 95.1508 4.29917 94.7992C4.65081 94.4475 5.12772 94.25 5.625 94.25H114.375C114.872 94.25 115.349 94.4475 115.701 94.7992C116.052 95.1508 116.25 95.6277 116.25 96.125C116.25 96.6223 116.052 97.0992 115.701 97.4508C115.349 97.8025 114.872 98 114.375 98Z" fill="#EA63B7"/>
</svg>
