<svg width="120" height="120" viewBox="0 0 120 120" fill="none" xmlns="http://www.w3.org/2000/svg">
<mask id="mask0_2268_388606" style="mask-type:luminance" maskUnits="userSpaceOnUse" x="0" y="0" width="120" height="120">
<path d="M0 1.52588e-05H120V120H0V1.52588e-05Z" fill="white"/>
</mask>
<g mask="url(#mask0_2268_388606)">
<path d="M117.422 62.5781C117.422 94.2914 91.7133 120 60 120C28.2867 120 2.57812 94.2914 2.57812 62.5781C2.57812 30.8649 28.2867 5.15627 60 5.15627C91.7133 5.15627 117.422 30.8649 117.422 62.5781Z" fill="#FFB332"/>
<path d="M102.188 73.125C102.188 96.4245 83.2995 115.312 60 115.312C36.7005 115.312 17.8125 96.4245 17.8125 73.125C17.8125 49.8255 36.7005 30.9375 60 30.9375C83.2995 30.9375 102.188 49.8255 102.188 73.125Z" fill="#FFDD40"/>
<path d="M90.4688 7.62939e-05H29.5312C19.1759 7.62939e-05 10.7812 8.39468 10.7812 18.7501V63.5553C10.7812 73.9107 19.1759 82.3053 29.5312 82.3053H39.506C42.7322 82.3053 45.7317 83.964 47.4466 86.6965L52.0594 94.0463C55.7341 99.9012 64.2659 99.9012 67.9406 94.0463L72.5534 86.6965C74.2683 83.964 77.2678 82.3053 80.494 82.3053H90.4688C100.824 82.3053 109.219 73.9107 109.219 63.5553V18.7501C109.219 8.39468 100.824 7.62939e-05 90.4688 7.62939e-05Z" fill="#FF4155"/>
<path d="M48.376 63.5553V18.7501C48.376 8.39468 56.7706 7.62939e-05 67.126 7.62939e-05H29.6537C19.2983 7.62939e-05 10.9037 8.39468 10.9037 18.7501V63.5553C10.9037 73.9107 19.2983 82.3053 29.6537 82.3053H39.6285C42.8546 82.3053 45.8542 83.964 47.5691 86.6965L52.1818 94.0463C55.8566 99.9012 64.3883 99.9012 68.0631 94.0463L72.6758 86.6965C74.3907 83.964 77.3902 82.3053 80.6164 82.3053H67.126C56.7706 82.3053 48.376 73.9107 48.376 63.5553Z" fill="#E80054"/>
<path d="M37.3616 49.4508C37.3616 37.9643 43.7767 29.8873 43.7767 29.8873C44.6359 36.1294 48.494 39.3872 48.494 39.3872C43.9579 18.5764 62.1187 9.96145 62.1173 9.96731C60.0065 18.4409 65.6486 23.0841 76.0077 33.443C80.428 37.8636 82.6384 43.6571 82.6384 49.4508C82.6384 57.8248 78.021 66.1988 68.7862 70.4262C63.2191 72.9748 56.7808 72.9748 51.2139 70.4262C41.9791 66.1988 37.3616 57.8248 37.3616 49.4508Z" fill="white"/>
<path d="M68.7862 70.4262C71.9962 68.9567 74.6468 66.9853 76.7409 64.6885C57.944 64.4642 51.6173 50.3105 48.4938 39.387C48.4938 39.387 44.636 36.1294 43.7768 29.8873C43.7768 29.8873 37.3617 37.9646 37.3617 49.4508C37.3617 57.8246 41.9791 66.1988 51.2137 70.4262C56.7808 72.9748 63.2191 72.9748 68.7862 70.4262Z" fill="#D3DCFB"/>
<path d="M69.6856 44.87C64.3329 42.4913 60 47.3339 60 47.3339C60 47.3339 55.6669 42.4913 50.3145 44.87C44.9618 47.2489 44.9618 55.1501 49.7196 60.4179C53.0121 64.0632 56.6707 66.2843 58.6121 67.3067C59.4816 67.7646 60.5185 67.7646 61.388 67.3067C63.3291 66.2843 66.9879 64.0632 70.2804 60.4179C75.038 55.1501 75.038 47.2489 69.6856 44.87Z" fill="#FF4155"/>
<path d="M65.3807 12.731C65.3807 12.731 64.6625 21.2283 74.7158 26.0156C74.7158 26.0156 73.9977 16.2019 65.3807 12.731Z" fill="white"/>
</g>
<path d="M79.3389 88.7273L83.5889 96.0795H83.7707L88.0662 88.7273H94.3616L87.3389 100.364L94.5889 112H88.1344L83.7707 104.568H83.5889L79.2253 112H72.8162L80.0321 100.364L72.998 88.7273H79.3389ZM100.425 112V107.955L108.914 100.523C109.55 99.947 110.092 99.4205 110.539 98.9432C110.986 98.4583 111.327 97.9735 111.562 97.4886C111.796 96.9962 111.914 96.4621 111.914 95.8864C111.914 95.2424 111.774 94.6932 111.493 94.2386C111.213 93.7765 110.827 93.4205 110.334 93.1705C109.842 92.9205 109.278 92.7955 108.641 92.7955C107.997 92.7955 107.433 92.928 106.948 93.1932C106.463 93.4508 106.084 93.8258 105.812 94.3182C105.546 94.8106 105.414 95.4091 105.414 96.1136H100.084C100.084 94.5303 100.44 93.1629 101.153 92.0114C101.865 90.8598 102.865 89.9735 104.153 89.3523C105.448 88.7235 106.952 88.4091 108.664 88.4091C110.429 88.4091 111.963 88.7045 113.266 89.2955C114.569 89.8864 115.577 90.7121 116.289 91.7727C117.009 92.8258 117.368 94.0492 117.368 95.4432C117.368 96.3295 117.19 97.2083 116.834 98.0795C116.478 98.9508 115.838 99.9129 114.914 100.966C113.997 102.019 112.694 103.28 111.005 104.75L108.221 107.318V107.466H117.653V112H100.425Z" fill="black"/>
</svg>
