<svg width="743" height="190" viewBox="0 0 743 190" fill="none" xmlns="http://www.w3.org/2000/svg">
<path d="M741.75 1.93164V1.93164C703.423 58.0264 639.867 91.5757 571.929 91.5757H184.934C111.449 91.5757 42.7059 127.864 1.25 188.538V188.538" stroke="black" stroke-width="2" stroke-linecap="round" stroke-dasharray="20 32"/>
<path fill-rule="evenodd" clip-rule="evenodd" d="M518.135 116.691C518.054 117.313 522.41 119.227 524.165 118.391C525.104 117.934 525.512 117.101 525.432 116.235C525.371 115.438 525.153 114.453 524.093 114.076C522.681 113.582 518.295 115.407 518.135 116.691ZM519.879 106.528C519.47 106.974 521.888 111.081 523.803 111.408C524.819 111.587 525.644 111.138 526.102 110.388C526.509 109.713 526.896 108.782 526.253 107.858C525.4 106.635 520.766 105.572 519.879 106.528ZM522.098 126.762C521.611 126.384 523.392 121.956 525.22 121.344C526.212 121.011 527.095 121.329 527.648 122.003C528.152 122.609 528.676 123.47 528.18 124.481C527.524 125.819 523.104 127.573 522.098 126.763L522.098 126.762ZM540.201 114.833C540.553 116.624 533.46 123.861 530.025 122.02C528.189 121.03 527.153 118.706 526.97 116.13C526.792 113.797 526.837 110.818 528.598 109.324C530.938 107.343 539.445 111.114 540.201 114.834L540.201 114.833Z" fill="black"/>
<path fill-rule="evenodd" clip-rule="evenodd" d="M509.342 64.3538C508.996 64.8759 512.062 68.5132 514.006 68.536C515.051 68.5387 515.784 67.9712 516.094 67.1579C516.39 66.416 516.628 65.436 515.843 64.6301C514.792 63.5651 510.051 63.2705 509.342 64.3538ZM515.385 55.9977C514.821 56.2182 515.183 60.9706 516.758 62.1072C517.591 62.716 518.529 62.6763 519.271 62.2039C519.934 61.7779 520.691 61.112 520.521 59.9992C520.294 58.5257 516.602 55.5306 515.385 55.9977ZM508.463 75.14C508.193 74.5862 511.742 71.3956 513.653 71.6515C514.69 71.7893 515.343 72.4645 515.542 73.3127C515.728 74.0787 515.82 75.0824 514.929 75.7715C513.75 76.6836 509.01 76.3114 508.463 75.141L508.463 75.14ZM529.97 72.4058C529.498 74.1687 519.942 77.5411 517.669 74.3755C516.457 72.6782 516.55 70.1346 517.521 67.7417C518.389 65.5689 519.741 62.9142 521.981 62.3491C524.954 61.6011 530.93 68.7339 529.97 72.4069L529.97 72.4058Z" fill="black"/>
<path fill-rule="evenodd" clip-rule="evenodd" d="M299.562 116.888C299.61 117.513 304.267 118.489 305.812 117.31C306.637 116.669 306.865 115.77 306.608 114.939C306.384 114.172 305.968 113.253 304.853 113.102C303.37 112.91 299.453 115.598 299.562 116.888ZM299.176 106.583C298.867 107.104 302.079 110.625 304.02 110.55C305.051 110.517 305.766 109.908 306.059 109.079C306.319 108.335 306.506 107.344 305.686 106.572C304.6 105.551 299.847 105.465 299.176 106.583ZM305.513 125.927C304.959 125.657 305.79 120.957 307.453 119.982C308.355 119.452 309.285 119.581 309.964 120.127C310.582 120.616 311.273 121.35 310.995 122.442C310.629 123.886 306.665 126.513 305.513 125.928L305.513 125.927ZM320.772 110.526C321.485 112.206 316.034 120.748 312.294 119.654C310.294 119.064 308.801 117.002 308.092 114.519C307.437 112.273 306.868 109.349 308.283 107.524C310.165 105.104 319.267 107.042 320.772 110.527L320.772 110.526Z" fill="black"/>
<path fill-rule="evenodd" clip-rule="evenodd" d="M280.18 67.4825C279.948 68.0648 283.698 70.9927 285.605 70.6147C286.628 70.4022 287.228 69.6959 287.364 68.8363C287.501 68.0493 287.532 67.0413 286.598 66.4143C285.351 65.5885 280.651 66.2765 280.18 67.4825ZM284.373 58.0612C283.866 58.3932 285.198 62.9692 286.974 63.757C287.915 64.1813 288.825 63.9492 289.453 63.3342C290.014 62.7808 290.618 61.9733 290.222 60.9193C289.697 59.5242 285.467 57.3534 284.373 58.0612ZM281.541 78.2185C281.162 77.7323 283.978 73.8793 285.901 73.7361C286.944 73.6575 287.722 74.1837 288.092 74.9727C288.431 75.6841 288.728 76.6474 287.998 77.5052C287.032 78.6404 282.317 79.2524 281.541 78.2197L281.541 78.2185ZM302.024 71.1142C301.924 72.9366 293.267 78.2046 290.392 75.5748C288.856 74.1635 288.424 71.6552 288.881 69.1137C289.282 66.8088 290.06 63.9324 292.134 62.9183C294.89 61.5741 302.207 67.3233 302.024 71.1154L302.024 71.1142Z" fill="black"/>
</svg>
