<svg width="743" height="189" viewBox="0 0 743 189" fill="none" xmlns="http://www.w3.org/2000/svg">
<path fill-rule="evenodd" clip-rule="evenodd" d="M406.4 80.011C406.503 79.41 402.343 77.3817 400.605 78.1266C399.675 78.5353 399.246 79.3287 399.291 80.174C399.319 80.9506 399.493 81.916 400.509 82.3238C401.862 82.8577 406.196 81.2536 406.4 80.011ZM404.314 89.8224C404.729 89.4041 402.537 85.3192 400.688 84.9283C399.707 84.7145 398.888 85.1192 398.414 85.8313C397.993 86.4712 397.581 87.3616 398.17 88.2845C398.952 89.5058 403.415 90.717 404.314 89.8224ZM402.936 70.0704C403.395 70.4566 401.494 74.6916 399.693 75.2163C398.716 75.5018 397.87 75.1582 397.359 74.4822C396.892 73.8737 396.416 73.0171 396.937 72.0534C397.626 70.7782 401.989 69.2434 402.936 70.0693L402.936 70.0704ZM384.882 80.9679C384.608 79.2137 391.781 72.4525 395.049 74.3739C396.795 75.4065 397.713 77.7058 397.792 80.2164C397.875 82.4907 397.716 85.3847 395.947 86.7687C393.597 88.6043 385.473 84.612 384.882 80.9667L384.882 80.9679Z" fill="black"/>
<path fill-rule="evenodd" clip-rule="evenodd" d="M391.842 118.173C392.058 117.603 388.367 114.812 386.518 115.209C385.526 115.431 384.953 116.127 384.834 116.965C384.712 117.733 384.697 118.713 385.616 119.309C386.841 120.093 391.402 119.353 391.842 118.173ZM387.906 127.4C388.394 127.069 387.029 122.639 385.29 121.899C384.369 121.501 383.487 121.74 382.885 122.348C382.348 122.895 381.773 123.689 382.174 124.708C382.706 126.057 386.852 128.105 387.906 127.4ZM390.355 107.752C390.731 108.219 388.05 112.009 386.182 112.177C385.169 112.27 384.404 111.77 384.033 111.008C383.692 110.321 383.389 109.389 384.086 108.543C385.008 107.425 389.585 106.758 390.356 107.751L390.355 107.752ZM370.541 114.971C370.61 113.197 378.95 107.943 381.787 110.457C383.302 111.806 383.761 114.239 383.354 116.718C382.999 118.966 382.286 121.775 380.284 122.793C377.624 124.142 370.42 118.661 370.541 114.97L370.541 114.971Z" fill="black"/>
<path d="M1.25 1V1C42.706 61.674 111.45 97.962 184.934 97.962H571.929C639.867 97.962 703.423 131.511 741.75 187.606V187.606" stroke="black" stroke-width="2" stroke-linecap="round" stroke-dasharray="20 32"/>
<path fill-rule="evenodd" clip-rule="evenodd" d="M625.446 87.5073C625.814 86.9999 622.898 83.24 620.957 83.1377C619.913 83.0922 619.158 83.6292 618.815 84.429C618.488 85.1582 618.211 86.1277 618.962 86.9651C619.968 88.0721 624.693 88.5606 625.446 87.5073ZM619.066 95.6089C619.639 95.4117 619.472 90.6486 617.944 89.4483C617.137 88.8059 616.198 88.8072 615.437 89.2488C614.758 89.6474 613.974 90.2817 614.098 91.4005C614.265 92.8821 617.831 96.0258 619.066 95.6089ZM626.766 76.7662C627.013 77.3305 623.336 80.3731 621.437 80.0392C620.407 79.859 619.782 79.1577 619.618 78.3021C619.464 77.5291 619.413 76.5224 620.332 75.8704C621.547 75.0074 626.268 75.5734 626.766 76.7651L626.766 76.7662ZM605.165 78.6174C605.709 76.8754 615.395 73.897 617.536 77.153C618.678 78.8986 618.481 81.4362 617.413 83.7874C616.457 85.9228 614.996 88.5198 612.736 88.9929C609.735 89.6185 604.055 82.2469 605.165 78.6163L605.165 78.6174Z" fill="black"/>
<path fill-rule="evenodd" clip-rule="evenodd" d="M606.901 134.627C607.454 134.333 606.493 129.673 604.796 128.726C603.879 128.226 602.964 128.375 602.304 128.942C601.689 129.453 601.013 130.201 601.319 131.284C601.734 132.72 605.761 135.24 606.901 134.627ZM597.604 139.089C598.205 139.165 600.154 134.815 599.311 133.064C598.869 132.132 598.026 131.719 597.148 131.781C596.363 131.839 595.379 132.063 594.998 133.123C594.495 134.526 596.311 138.919 597.604 139.089ZM612.817 125.565C612.791 126.181 608.15 127.293 606.592 126.156C605.746 125.541 605.494 124.636 605.724 123.795C605.926 123.033 606.324 122.107 607.436 121.927C608.907 121.687 612.896 124.275 612.818 125.564L612.817 125.565ZM592.61 117.711C593.866 116.387 603.874 117.981 604.361 121.847C604.617 123.917 603.322 126.108 601.328 127.748C599.529 129.244 597.074 130.932 594.836 130.361C591.866 129.601 590.015 120.481 592.61 117.711L592.61 117.711Z" fill="black"/>
</svg>
